<svg width="32" height="58" viewBox="0 0 32 58" fill="none" xmlns="http://www.w3.org/2000/svg">
<path d="M6.75334 24.25C5.93667 24.25 5.17834 24.0867 4.47834 23.76C3.77834 23.4333 3.17167 22.955 2.65834 22.325C2.16834 21.695 1.78334 20.9367 1.50334 20.05C1.22334 19.14 1.08334 18.1133 1.08334 16.97C1.08334 15.8267 1.22334 14.8117 1.50334 13.925C1.78334 13.0383 2.16834 12.2917 2.65834 11.685C3.17167 11.055 3.77834 10.5767 4.47834 10.25C5.17834 9.92333 5.93667 9.76 6.75334 9.76C7.57001 9.76 8.32834 9.92333 9.02834 10.25C9.72834 10.5767 10.3233 11.055 10.8133 11.685C11.3267 12.2917 11.7233 13.0383 12.0033 13.925C12.3067 14.8117 12.4583 15.8267 12.4583 16.97C12.4583 18.1133 12.3067 19.14 12.0033 20.05C11.7233 20.9367 11.3267 21.695 10.8133 22.325C10.3233 22.955 9.72834 23.4333 9.02834 23.76C8.32834 24.0867 7.57001 24.25 6.75334 24.25ZM6.75334 21.38C7.33667 21.38 7.82667 21.0533 8.22334 20.4C8.64334 19.7467 8.85334 18.6033 8.85334 16.97C8.85334 15.3367 8.64334 14.205 8.22334 13.575C7.82667 12.945 7.33667 12.63 6.75334 12.63C6.17001 12.63 5.66834 12.945 5.24834 13.575C4.85167 14.205 4.65334 15.3367 4.65334 16.97C4.65334 18.6033 4.85167 19.7467 5.24834 20.4C5.66834 21.0533 6.17001 21.38 6.75334 21.38ZM7.52334 33.42L19.8433 9.76H22.8183L10.4983 33.42H7.52334ZM23.5883 33.42C22.7717 33.42 22.0133 33.2567 21.3133 32.93C20.6133 32.6033 20.0067 32.125 19.4933 31.495C19.0033 30.865 18.6183 30.1067 18.3383 29.22C18.0583 28.31 17.9183 27.2833 17.9183 26.14C17.9183 24.9967 18.0583 23.9817 18.3383 23.095C18.6183 22.2083 19.0033 21.4617 19.4933 20.855C20.0067 20.225 20.6133 19.7467 21.3133 19.42C22.0133 19.0933 22.7717 18.93 23.5883 18.93C24.405 18.93 25.1633 19.0933 25.8633 19.42C26.5633 19.7467 27.1583 20.225 27.6483 20.855C28.1617 21.4617 28.5583 22.2083 28.8383 23.095C29.1417 23.9817 29.2933 24.9967 29.2933 26.14C29.2933 27.2833 29.1417 28.31 28.8383 29.22C28.5583 30.1067 28.1617 30.865 27.6483 31.495C27.1583 32.125 26.5633 32.6033 25.8633 32.93C25.1633 33.2567 24.405 33.42 23.5883 33.42ZM23.5883 30.55C24.1717 30.55 24.6617 30.2233 25.0583 29.57C25.4783 28.9167 25.6883 27.7733 25.6883 26.14C25.6883 24.5067 25.4783 23.375 25.0583 22.745C24.6617 22.115 24.1717 21.8 23.5883 21.8C23.005 21.8 22.5033 22.115 22.0833 22.745C21.6867 23.375 21.4883 24.5067 21.4883 26.14C21.4883 27.7733 21.6867 28.9167 22.0833 29.57C22.5033 30.2233 23.005 30.55 23.5883 30.55Z" fill="white"/>
<path d="M7.47734 53.264C6.56801 53.264 5.73201 53.088 4.96934 52.736C4.22134 52.384 3.57601 51.8853 3.03334 51.24C2.49067 50.58 2.06534 49.788 1.75734 48.864C1.46401 47.9253 1.31734 46.8767 1.31734 45.718C1.31734 44.5593 1.46401 43.5253 1.75734 42.616C2.06534 41.692 2.49067 40.9147 3.03334 40.284C3.57601 39.6387 4.22134 39.1473 4.96934 38.81C5.73201 38.4727 6.56801 38.304 7.47734 38.304C8.38667 38.304 9.21534 38.48 9.96334 38.832C10.726 39.1693 11.3787 39.6607 11.9213 40.306C12.4787 40.9367 12.904 41.714 13.1973 42.638C13.5053 43.5473 13.6593 44.574 13.6593 45.718C13.6593 46.8767 13.5053 47.9253 13.1973 48.864C12.904 49.788 12.4787 50.58 11.9213 51.24C11.3787 51.8853 10.726 52.384 9.96334 52.736C9.21534 53.088 8.38667 53.264 7.47734 53.264ZM7.47734 51.658C8.12267 51.658 8.70201 51.5187 9.21534 51.24C9.74334 50.9613 10.1907 50.5653 10.5573 50.052C10.9387 49.524 11.232 48.9007 11.4373 48.182C11.6427 47.4487 11.7453 46.6273 11.7453 45.718C11.7453 44.8233 11.6427 44.0167 11.4373 43.298C11.232 42.5793 10.9387 41.9707 10.5573 41.472C10.1907 40.9733 9.74334 40.592 9.21534 40.328C8.70201 40.0493 8.12267 39.91 7.47734 39.91C6.83201 39.91 6.24534 40.0493 5.71734 40.328C5.20401 40.592 4.75667 40.9733 4.37534 41.472C4.00867 41.9707 3.72267 42.5793 3.51734 43.298C3.31201 44.0167 3.20934 44.8233 3.20934 45.718C3.20934 46.6273 3.31201 47.4487 3.51734 48.182C3.72267 48.9007 4.00867 49.524 4.37534 50.052C4.75667 50.5653 5.20401 50.9613 5.71734 51.24C6.24534 51.5187 6.83201 51.658 7.47734 51.658ZM23.1647 53V43.782H18.6987V53H16.8947V43.782H15.4427V42.418L16.8947 42.308V40.9C16.8947 39.7853 17.166 38.9053 17.7087 38.26C18.266 37.6147 19.102 37.292 20.2167 37.292C20.5687 37.292 20.9134 37.3287 21.2507 37.402C21.6027 37.4753 21.9107 37.5707 22.1747 37.688L21.8007 39.052C21.3607 38.8613 20.884 38.766 20.3707 38.766C19.8427 38.766 19.432 38.9567 19.1387 39.338C18.8454 39.7047 18.6987 40.24 18.6987 40.944V42.308H23.1647V40.614C23.1647 39.514 23.414 38.6487 23.9127 38.018C24.426 37.3873 25.218 37.072 26.2887 37.072C26.626 37.072 26.9414 37.1087 27.2347 37.182C27.5427 37.2407 27.8214 37.3213 28.0707 37.424L27.6747 38.81C27.2787 38.634 26.8754 38.546 26.4647 38.546C25.4674 38.546 24.9687 39.2353 24.9687 40.614V42.308H27.2347V43.782H24.9687V53H23.1647Z" fill="white"/>
</svg>
